<svg width="26" height="27" viewBox="0 0 26 27" fill="none" xmlns="http://www.w3.org/2000/svg">
<path d="M10.4271 26.2325C12.1246 26.2325 13.5007 24.8565 13.5007 23.159C13.5007 21.4615 12.1246 20.0854 10.4271 20.0854C8.7296 20.0854 7.35352 21.4615 7.35352 23.159C7.35352 24.8565 8.7296 26.2325 10.4271 26.2325Z" fill="#484848"/>
<path d="M19.3963 20.0856C17.6989 20.0856 16.3228 21.4617 16.3228 23.1591C16.3228 24.8566 17.6989 26.2327 19.3963 26.2327C21.0938 26.2327 22.4699 24.8566 22.4699 23.1591C22.4699 21.4617 21.0938 20.0856 19.3963 20.0856Z" fill="#484848"/>
<path d="M24.6341 16.949H8.60762L8.29399 15.1299H21.4665C21.854 15.1311 22.2026 14.8945 22.3446 14.534L25.4809 6.63057C25.6715 6.14714 25.434 5.60073 24.9506 5.41023C24.8398 5.36655 24.7218 5.34432 24.6028 5.34469H6.66312L5.9104 1.01659C5.8331 0.558948 5.43359 0.226022 4.96951 0.232515H1.36277C0.843132 0.232515 0.421875 0.653772 0.421875 1.17341C0.421875 1.69304 0.843132 2.1143 1.36277 2.1143H4.18544L6.88266 18.0467C6.95996 18.5043 7.35947 18.8373 7.82355 18.8308H24.6341C25.1538 18.8308 25.575 18.4095 25.575 17.8899C25.575 17.3703 25.1538 16.949 24.6341 16.949Z" fill="#484848"/>
</svg>
