<svg width="30" height="22" viewBox="0 0 30 22" fill="none" xmlns="http://www.w3.org/2000/svg">
<g clip-path="url(#clip0)">
<path d="M22.6575 14.8361C20.5723 14.8361 18.876 16.5325 18.876 18.6176C18.876 20.7028 20.5723 22.3992 22.6575 22.3992C24.743 22.3992 26.439 20.7028 26.439 18.6176C26.439 16.5325 24.7427 14.8361 22.6575 14.8361ZM22.6575 20.5084C21.6148 20.5084 20.7667 19.6604 20.7667 18.6176C20.7667 17.5749 21.6148 16.7269 22.6575 16.7269C23.7002 16.7269 24.5483 17.5749 24.5483 18.6176C24.5483 19.6604 23.7002 20.5084 22.6575 20.5084Z" fill="#3FAAE0"/>
<path d="M9.73758 14.8361C7.6524 14.8361 5.95605 16.5325 5.95605 18.6176C5.95605 20.7028 7.6524 22.3992 9.73758 22.3992C11.8228 22.3992 13.5191 20.7028 13.5191 18.6176C13.5191 16.5325 11.8228 14.8361 9.73758 14.8361ZM9.73758 20.5084C8.69484 20.5084 7.84682 19.6604 7.84682 18.6176C7.84682 17.5749 8.69484 16.7269 9.73758 16.7269C10.78 16.7269 11.6283 17.5749 11.6283 18.6176C11.6283 19.6604 10.7803 20.5084 9.73758 20.5084Z" fill="#3FAAE0"/>
<path d="M25.2042 4.01221C25.0435 3.69299 24.7167 3.49161 24.3594 3.49161H19.3804V5.38237H23.7764L26.3506 10.5025L28.0404 9.65292L25.2042 4.01221Z" fill="#3FAAE0"/>
<path d="M19.8213 17.7038H12.668V19.5946H19.8213V17.7038Z" fill="#3FAAE0"/>
<path d="M6.90133 17.7038H3.62406C3.10187 17.7038 2.67871 18.127 2.67871 18.6492C2.67871 19.1714 3.10193 19.5945 3.62406 19.5945H6.90139C7.42357 19.5945 7.84674 19.1713 7.84674 18.6492C7.84674 18.127 7.42352 17.7038 6.90133 17.7038Z" fill="#3FAAE0"/>
<path d="M29.8016 11.9243L27.942 9.52939C27.7634 9.2987 27.4877 9.16382 27.1955 9.16382H20.3257V2.54618C20.3257 2.02399 19.9025 1.60083 19.3804 1.60083H3.62406C3.10187 1.60083 2.67871 2.02405 2.67871 2.54618C2.67871 3.06831 3.10193 3.49153 3.62406 3.49153H18.435V10.1092C18.435 10.6314 18.8582 11.0545 19.3803 11.0545H26.7326L28.1093 12.828V17.7037H25.4938C24.9716 17.7037 24.5484 18.1269 24.5484 18.649C24.5484 19.1712 24.9716 19.5944 25.4938 19.5944H29.0547C29.5769 19.5944 30 19.1712 30.0001 18.649V12.5042C30.0001 12.2943 29.9301 12.0901 29.8016 11.9243Z" fill="#3FAAE0"/>
<path d="M6.83807 12.9139H2.4893C1.96711 12.9139 1.54395 13.3371 1.54395 13.8592C1.54395 14.3814 1.96717 14.8046 2.4893 14.8046H6.83801C7.3602 14.8046 7.78336 14.3814 7.78336 13.8592C7.78342 13.3371 7.36019 12.9139 6.83807 12.9139Z" fill="#3FAAE0"/>
<path d="M9.0126 9.19534H0.945352C0.423223 9.19534 0 9.61857 0 10.1408C0 10.6629 0.423223 11.0861 0.945352 11.0861H9.0126C9.53479 11.0861 9.95795 10.6629 9.95795 10.1408C9.95795 9.61862 9.53479 9.19534 9.0126 9.19534Z" fill="#3FAAE0"/>
<path d="M10.5565 5.47687H2.4893C1.96711 5.47687 1.54395 5.90009 1.54395 6.42222C1.54395 6.94441 1.96717 7.36757 2.4893 7.36757H10.5565C11.0787 7.36757 11.5019 6.94435 11.5019 6.42222C11.502 5.90009 11.0787 5.47687 10.5565 5.47687Z" fill="#3FAAE0"/>
</g>
<defs>
<clipPath id="clip0">
<rect width="30" height="22" fill="white"/>
</clipPath>
</defs>
</svg>
