<svg width="50" height="50" viewBox="0 0 50 50" fill="none" xmlns="http://www.w3.org/2000/svg">
<path d="M22.0752 3.50628L22.0832 3.49863L22.0911 3.49086C23.4349 2.1701 25.252 1.45378 27.1279 1.50232L27.1473 1.50282H27.1667H27.2514C29.9704 1.52927 31.3081 2.1448 31.9587 2.72565C32.5748 3.27564 32.7886 3.98787 32.7886 4.77986C32.7886 5.35101 32.5985 5.93434 32.2178 6.59746C31.831 7.27111 31.3103 7.92564 30.7083 8.68244L30.6896 8.70599C30.6891 8.7066 30.6886 8.70721 30.6881 8.70783C30.3537 9.12536 29.9937 9.57827 29.6631 10.0326L29.6605 10.0362C27.143 13.5178 26.0237 17.3995 25.2605 20.0462L25.2503 20.0815C25.2501 20.0822 25.2499 20.0829 25.2497 20.0835C24.7984 21.6311 24.4745 22.7112 24.0682 23.4317C23.879 23.7673 23.7225 23.9269 23.614 24.0035C23.5294 24.0632 23.4247 24.11 23.2239 24.11H23.2108C22.4217 24.0994 21.4108 23.3738 20.5392 21.1684C19.7185 19.0919 19.277 16.2615 19.295 13.4592C19.3157 11.1336 19.63 8.97732 20.1504 7.21352C20.6806 5.41608 21.3827 4.16699 22.0752 3.50628Z" stroke="#4A4A4A" stroke-width="3"/>
<path d="M10.8135 25.4501L10.8037 25.4466L10.7938 25.4433C8.61026 24.7102 6.66762 23.745 5.15721 22.701C3.61865 21.6375 2.64905 20.5762 2.23595 19.7027L2.23069 19.6916L2.22524 19.6806C1.37775 17.9621 1.26814 15.9686 1.92211 14.1659L1.92693 14.1526L1.9315 14.1392C3.12576 10.6432 4.51216 9.72253 5.73079 9.71992C6.06521 9.72287 6.39716 9.77982 6.7147 9.88881L6.71469 9.88884L6.72372 9.89187C7.26274 10.0731 7.75861 10.4376 8.27151 11.0051C8.79666 11.5861 9.26309 12.2897 9.79908 13.0991C9.83181 13.1491 9.86509 13.2 9.89888 13.2518C10.1552 13.6441 10.4408 14.0813 10.7367 14.488L10.737 14.4884C13.2783 17.9788 16.5946 20.2763 18.8846 21.8143C20.1616 22.6877 21.092 23.3343 21.6654 23.9568C22.1716 24.5063 22.1601 24.7617 22.0879 24.9905C21.8132 25.7751 20.6972 26.6831 17.6372 26.686C15.3123 26.6385 13.0093 26.2214 10.8135 25.4501Z" stroke="#4A4A4A" stroke-width="3"/>
<path d="M12.2738 43.1971C11.9786 43.2558 11.678 43.2862 11.3764 43.2879H11.3428C9.79304 43.2472 8.29483 42.7159 7.06204 41.7679L7.05221 41.7604L7.04226 41.753C4.84801 40.1226 4.12352 38.8325 3.93827 37.9783C3.76354 37.1727 4.00992 36.4758 4.47724 35.8429L4.47725 35.8429L4.48113 35.8376C5.19644 34.86 6.5138 34.4348 8.47374 33.8988L8.47554 33.8983C8.98366 33.7586 9.54966 33.6023 10.0835 33.4253C14.1531 32.0905 17.3051 29.6376 19.4693 27.9534L19.5281 27.9076L19.5283 27.9075C20.4824 27.1648 21.2201 26.5983 21.8647 26.2089C22.5155 25.8158 22.8911 25.7185 23.1169 25.7185H23.126L23.1351 25.7184C23.2711 25.7168 23.4047 25.7601 23.5154 25.843L23.5194 25.8459C24.1596 26.3222 24.5545 27.5136 23.9682 29.8177C23.4171 31.9834 22.1175 34.5356 20.4599 36.7951C19.09 38.6466 17.5758 40.2011 16.1197 41.32C14.6354 42.4605 13.3304 43.0576 12.3747 43.1806L12.3239 43.1871L12.2738 43.1971Z" stroke="#4A4A4A" stroke-width="3"/>
<path d="M31.1355 47.5417C32.0642 47.4034 33.2635 46.8873 34.827 45.7649L34.8438 45.7529L34.8609 45.7413C36.4409 44.6718 37.517 42.9964 37.8351 41.1047L37.8377 41.0893L37.8406 41.074C38.0216 40.119 37.8573 38.6851 37.2312 36.9116C36.6167 35.1712 35.6051 33.2398 34.2677 31.3528C32.7825 29.2647 31.1616 27.5803 29.6338 26.4331C28.0664 25.2562 26.7634 24.7677 25.8865 24.7677H25.8622L25.8379 24.7669C25.4963 24.7558 25.1594 24.8516 24.8734 25.0417C24.6759 25.1865 24.5204 25.3866 24.6045 26.1178C24.7014 26.9596 25.0763 28.0333 25.6007 29.501L31.1355 47.5417ZM31.1355 47.5417L30.6136 47.5433C29.7604 47.546 28.9601 47.1172 28.4857 46.3973L28.4676 46.3698L28.4483 46.3432C28.1131 45.8799 27.926 45.297 27.8471 44.5385C27.7668 43.7662 27.8072 42.9304 27.854 41.9617L27.8555 41.9314L27.8572 41.8952V41.859C27.8572 41.6264 27.8676 41.3881 27.88 41.1108L27.8806 41.0969C27.8924 40.8341 27.9058 40.5341 27.9058 40.2287C27.9058 35.9384 26.5599 32.1798 25.6307 29.5848C25.6208 29.557 25.6109 29.5294 25.601 29.5019L31.1355 47.5417Z" stroke="#4A4A4A" stroke-width="3"/>
<path d="M45.641 27.148L45.1642 27.1462C44.3409 27.0496 43.4377 26.7202 42.3432 26.3209C42.2821 26.2986 42.2205 26.2762 42.1583 26.2535C41.6696 26.0665 41.1197 25.8568 40.5776 25.6853L40.5685 25.6824L40.5593 25.6796C37.8617 24.8636 35.0537 24.4754 32.237 24.5285H32.221C31.3741 24.5285 30.5028 24.5285 29.715 24.5774C29.3679 24.5784 29.0389 24.5896 28.7465 24.6L28.7132 24.6012C28.4124 24.6119 28.1599 24.6208 27.9252 24.6208C27.2791 24.6208 26.6042 24.6121 26.0386 24.4532C25.5109 24.305 25.3495 24.111 25.2796 23.8866L25.2784 23.883C25.0663 23.2084 25.3194 21.9736 27.2527 20.3726C29.3016 18.7761 31.6279 17.5769 34.1127 16.8363L34.1339 16.83L34.1548 16.8231C36.282 16.1204 38.5021 15.7429 40.741 15.7031L40.7595 15.7028L40.778 15.702C42.0416 15.6484 43.3 15.9007 44.4471 16.4375C46.1259 17.3267 47.3733 18.8676 47.897 20.7063L47.9024 20.7254L47.9084 20.7444C48.7293 23.3618 48.5597 24.8348 48.2104 25.632C47.8828 26.3798 47.283 26.7884 46.5468 27.0115L46.5468 27.0115L46.539 27.0139C46.2474 27.104 45.9449 27.1492 45.641 27.148Z" stroke="#4A4A4A" stroke-width="3"/>
<path d="M25.0033 31.3759C28.7694 31.3759 31.8224 28.3078 31.8224 24.5231C31.8224 20.7384 28.7694 17.6703 25.0033 17.6703C21.2371 17.6703 18.1841 20.7384 18.1841 24.5231C18.1841 28.3078 21.2371 31.3759 25.0033 31.3759Z" fill="#4A4A4A"/>
<path d="M25.0046 29.99C28.0091 29.99 30.4447 27.5424 30.4447 24.5231C30.4447 21.5038 28.0091 19.0561 25.0046 19.0561C22.0001 19.0561 19.5645 21.5038 19.5645 24.5231C19.5645 27.5424 22.0001 29.99 25.0046 29.99Z" fill="#3FAAE0"/>
</svg>
