<svg width="32" height="32" viewBox="0 0 32 32" fill="none" xmlns="http://www.w3.org/2000/svg">
<circle cx="16" cy="16" r="16" fill="white"/>
<path d="M11.578 12.6875H8V23H11.578V12.6875Z" fill="#1F1E1E"/>
<path d="M21.324 12.8084C21.286 12.7972 21.25 12.785 21.21 12.7747C21.162 12.7644 21.114 12.7559 21.065 12.7484C20.875 12.7128 20.667 12.6875 20.423 12.6875C18.337 12.6875 17.014 14.1097 16.578 14.6591V12.6875H13V23H16.578V17.375C16.578 17.375 19.282 13.8444 20.423 16.4375C20.423 18.7522 20.423 23 20.423 23H24V16.0409C24 14.4828 22.861 13.1844 21.324 12.8084Z" fill="#1F1E1E"/>
<path d="M9.75 11.2812C10.7165 11.2812 11.5 10.5467 11.5 9.64062C11.5 8.73453 10.7165 8 9.75 8C8.7835 8 8 8.73453 8 9.64062C8 10.5467 8.7835 11.2812 9.75 11.2812Z" fill="#1F1E1E"/>
</svg>
