<svg width="32" height="32" viewBox="0 0 32 32" fill="none" xmlns="http://www.w3.org/2000/svg">
<circle cx="16" cy="16" r="16" fill="white"/>
<path d="M23.6671 12.6179C23.6303 11.7833 23.4953 11.2096 23.302 10.7124C23.1025 10.1847 22.7956 9.71218 22.3935 9.31941C22.0006 8.92052 21.5249 8.61056 21.0032 8.41423C20.5031 8.2209 19.9322 8.08594 19.0975 8.04914C18.2565 8.00923 17.9895 8 15.8566 8C13.7236 8 13.4567 8.00923 12.6188 8.04603C11.7841 8.08282 11.2102 8.2179 10.713 8.41112C10.1851 8.61056 9.71251 8.9174 9.31966 9.31941C8.92069 9.71218 8.6108 10.1878 8.41431 10.7094C8.22094 11.2096 8.08596 11.7802 8.04915 12.6148C8.00923 13.4556 8 13.7225 8 15.8551C8 17.9876 8.00923 18.2545 8.04603 19.0922C8.08284 19.9268 8.21795 20.5006 8.41131 20.9977C8.6108 21.5255 8.92069 21.998 9.31966 22.3907C9.71251 22.7896 10.1882 23.0996 10.7099 23.2959C11.2102 23.4892 11.781 23.6242 12.6158 23.661C13.4535 23.6979 13.7206 23.707 15.8536 23.707C17.9865 23.707 18.2535 23.6979 19.0913 23.661C19.9261 23.6242 20.5 23.4892 20.9971 23.2959C22.0529 22.8878 22.8876 22.0532 23.2958 20.9977C23.4891 20.4976 23.6242 19.9268 23.661 19.0922C23.6978 18.2545 23.707 17.9876 23.707 15.8551C23.707 13.7225 23.7039 13.4556 23.6671 12.6179ZM22.2524 19.0309C22.2186 19.798 22.0897 20.2122 21.9823 20.4883C21.7183 21.1726 21.1751 21.7157 20.4907 21.9796C20.2145 22.087 19.7972 22.2159 19.033 22.2495C18.2043 22.2865 17.9558 22.2956 15.8597 22.2956C13.7636 22.2956 13.5119 22.2865 12.6863 22.2495C11.9191 22.2159 11.5047 22.087 11.2285 21.9796C10.888 21.8538 10.5779 21.6543 10.3263 21.3935C10.0654 21.1388 9.86596 20.832 9.74008 20.4915C9.63267 20.2153 9.5038 19.798 9.47011 19.034C9.43319 18.2055 9.42408 17.9569 9.42408 15.8612C9.42408 13.7655 9.43319 13.5139 9.47011 12.6885C9.5038 11.9214 9.63267 11.5072 9.74008 11.231C9.86596 10.8904 10.0654 10.5806 10.3294 10.3289C10.5841 10.068 10.8909 9.8686 11.2317 9.74287C11.5079 9.63547 11.9253 9.50663 12.6894 9.47283C13.518 9.43603 13.7667 9.4268 15.8627 9.4268C17.9619 9.4268 18.2105 9.43603 19.0361 9.47283C19.8033 9.50663 20.2176 9.63547 20.4938 9.74287C20.8344 9.8686 21.1444 10.068 21.3961 10.3289C21.6569 10.5836 21.8564 10.8904 21.9823 11.231C22.0897 11.5072 22.2186 11.9244 22.2524 12.6885C22.2892 13.517 22.2984 13.7655 22.2984 15.8612C22.2984 17.9569 22.2892 18.2024 22.2524 19.0309Z" fill="#1F1E1E"/>
<path d="M15.8516 12.072C13.7641 12.072 12.0703 13.7657 12.0703 15.8533C12.0703 17.941 13.7641 19.6347 15.8516 19.6347C17.9393 19.6347 19.633 17.941 19.633 15.8533C19.633 13.7657 17.9393 12.072 15.8516 12.072ZM15.8516 18.3062C14.4973 18.3062 13.3988 17.2078 13.3988 15.8533C13.3988 14.4989 14.4973 13.4005 15.8516 13.4005C17.2061 13.4005 18.3045 14.4989 18.3045 15.8533C18.3045 17.2078 17.2061 18.3062 15.8516 18.3062Z" fill="#1F1E1E"/>
<path d="M20.2166 11.3449C20.2166 11.7464 19.891 12.072 19.4893 12.072C19.0878 12.072 18.7622 11.7464 18.7622 11.3449C18.7622 10.9432 19.0878 10.6177 19.4893 10.6177C19.891 10.6177 20.2166 10.9432 20.2166 11.3449Z" fill="#1F1E1E"/>
</svg>
