<svg width="57" height="57" viewBox="0 0 57 57" fill="none" xmlns="http://www.w3.org/2000/svg">
<g clip-path="url(#clip0)" filter="url(#filter0_d)">
<path d="M44.1509 23.6025C44.1509 14.9724 37.1297 7.95117 28.4995 7.95117C19.8693 7.95117 12.8481 14.9724 12.8481 23.6025C12.8481 29.3765 16.0104 34.6096 20.9861 37.3346V41.4866C20.9861 45.6295 24.3565 49 28.4995 49C32.6425 49 36.013 45.6296 36.013 41.4866V37.3346C40.9773 34.6158 44.1509 29.3895 44.1509 23.6025ZM39.0332 30.4268C37.747 32.4071 35.9393 33.9809 33.8056 34.9781C33.2601 35.233 32.9114 35.7808 32.9114 36.383V40.0039L32.7001 40.0464C31.0915 40.3708 31.0324 42.6555 32.6173 43.0677C31.4774 46.0264 27.6867 46.8561 25.419 44.6408L28.8059 43.9581C29.6455 43.7889 30.1888 42.971 30.0196 42.1315C29.8503 41.2919 29.0321 40.7486 28.193 40.9178L24.0956 41.7437C24.0841 41.5443 24.0875 41.7299 24.0875 38.6216C25.4603 39.0329 26.9375 39.2538 28.4995 39.2538C29.3559 39.2538 30.0503 38.5595 30.0503 37.7031C30.0503 36.8467 29.3559 36.1523 28.4995 36.1523C24.234 36.1523 20.2833 33.9948 17.9658 30.4266C12.5977 22.1616 18.5223 11.0526 28.4995 11.0526C38.4735 11.0528 44.4036 22.1583 39.0332 30.4268Z" fill="#4A4A4A"/>
<path d="M50.5518 22.0518H47.9951C47.1387 22.0518 46.4443 22.7461 46.4443 23.6025C46.4443 24.4589 47.1387 25.1532 47.9951 25.1532H50.5518C51.4082 25.1532 52.1025 24.4589 52.1025 23.6025C52.1025 22.7461 51.4082 22.0518 50.5518 22.0518Z" fill="#4A4A4A"/>
<path d="M9.00489 22.0518H6.4482C5.59181 22.0518 4.89746 22.7461 4.89746 23.6025C4.89746 24.4589 5.59181 25.1532 6.4482 25.1532H9.00489C9.86129 25.1532 10.5556 24.4589 10.5556 23.6025C10.5556 22.7461 9.86139 22.0518 9.00489 22.0518Z" fill="#4A4A4A"/>
<path d="M43.3817 36.2911C42.7761 35.6854 41.7942 35.6854 41.1886 36.2911C40.583 36.8966 40.583 37.8785 41.1886 38.4841L42.9965 40.292C43.2993 40.5949 43.6962 40.7463 44.093 40.7463C45.4621 40.7463 46.1691 39.0786 45.1894 38.099L43.3817 36.2911Z" fill="#4A4A4A"/>
<path d="M13.6185 10.9139C14.2241 11.5195 15.2059 11.5196 15.8115 10.9139C16.4171 10.3083 16.4171 9.32645 15.8115 8.72089L14.0037 6.91301C13.3981 6.30745 12.4163 6.30735 11.8106 6.91301C11.2051 7.51867 11.2051 8.50049 11.8106 9.10606L13.6185 10.9139Z" fill="#4A4A4A"/>
<path d="M28.5004 5.65818C29.3568 5.65818 30.0512 4.96383 30.0512 4.10743V1.55074C30.0512 0.694345 29.3568 0 28.5004 0C27.6441 0 26.9497 0.694345 26.9497 1.55074V4.10743C26.9497 4.96393 27.6441 5.65818 28.5004 5.65818Z" fill="#4A4A4A"/>
<path d="M13.6186 36.2911L11.8107 38.0989C11.205 38.7045 11.205 39.6864 11.8107 40.292C12.4162 40.8975 13.3982 40.8976 14.0037 40.292L15.8116 38.4841C16.4173 37.8785 16.4173 36.8966 15.8116 36.2911C15.206 35.6854 14.2241 35.6854 13.6186 36.2911Z" fill="#4A4A4A"/>
<path d="M42.9965 6.91304L41.1886 8.72091C40.583 9.32658 40.583 10.3084 41.1886 10.914C41.7942 11.5195 42.776 11.5197 43.3817 10.914L45.1895 9.10608C45.7952 8.50042 45.7952 7.5186 45.1895 6.91304C44.5839 6.30747 43.6021 6.30747 42.9965 6.91304Z" fill="#4A4A4A"/>
<path d="M27.475 29.9444C27.4 29.9444 27.3243 29.9322 27.2511 29.9077C26.9627 29.8089 26.7868 29.5361 26.8277 29.252L27.5377 24.2281H24.798C24.5523 24.2281 24.3267 24.0983 24.2152 23.8925C24.1037 23.6867 24.1255 23.4393 24.271 23.2539L29.0622 17.1293C29.2407 16.8998 29.5648 16.8149 29.8427 16.9267C30.1214 17.037 30.2835 17.3122 30.2338 17.5915L29.4899 21.7783H32.2026C32.4413 21.7783 32.6608 21.8999 32.7758 22.0968C32.8899 22.2927 32.8812 22.532 32.7531 22.7206L28.0255 29.6619C27.9027 29.8424 27.6927 29.9444 27.475 29.9444Z" fill="#3FAAE0"/>
<path d="M32.2026 22.2783C32.2743 22.2783 32.3238 22.3146 32.3438 22.3486C32.3603 22.377 32.3602 22.4091 32.3396 22.4396C32.3395 22.4397 32.3395 22.4397 32.3394 22.4398L27.6123 29.3804L27.6122 29.3806C27.5901 29.413 27.5414 29.4444 27.475 29.4444C27.4549 29.4444 27.4333 29.4412 27.4115 29.4341C27.3317 29.406 27.3189 29.3488 27.3226 29.3233L27.3228 29.3219L28.0328 24.2981L28.1133 23.7281H27.5377H24.798C24.7243 23.7281 24.6736 23.6889 24.6548 23.6543C24.6461 23.6382 24.6436 23.6229 24.6448 23.6091C24.646 23.5952 24.6513 23.5791 24.6643 23.5626L24.6648 23.562L29.456 17.4373L29.4567 17.4364C29.4938 17.3888 29.5783 17.3593 29.656 17.3906L29.6588 17.3917C29.735 17.4218 29.7462 17.4778 29.7415 17.504L29.7415 17.504L28.9976 21.6908L28.8932 22.2783H29.4899H32.2026Z" stroke="black" stroke-opacity="0.48"/>
</g>
<defs>
<filter id="filter0_d" x="0" y="0" width="57" height="57" filterUnits="userSpaceOnUse" color-interpolation-filters="sRGB">
<feFlood flood-opacity="0" result="BackgroundImageFix"/>
<feColorMatrix in="SourceAlpha" type="matrix" values="0 0 0 0 0 0 0 0 0 0 0 0 0 0 0 0 0 0 127 0"/>
<feOffset dy="4"/>
<feGaussianBlur stdDeviation="2"/>
<feColorMatrix type="matrix" values="0 0 0 0 0 0 0 0 0 0 0 0 0 0 0 0 0 0 0.25 0"/>
<feBlend mode="normal" in2="BackgroundImageFix" result="effect1_dropShadow"/>
<feBlend mode="normal" in="SourceGraphic" in2="effect1_dropShadow" result="shape"/>
</filter>
<clipPath id="clip0">
<rect width="49" height="49" fill="white" transform="translate(4)"/>
</clipPath>
</defs>
</svg>
