<svg width="28" height="24" viewBox="0 0 28 24" fill="none" xmlns="http://www.w3.org/2000/svg">
<path d="M15.2252 17.2095C15.2252 18.915 15.8902 20.5199 17.0962 21.7259C18.3021 22.9318 19.9071 23.5969 21.6126 23.5969C23.318 23.5969 24.923 22.9318 26.129 21.7259C27.3379 20.5199 28 18.9179 28 17.2095C28 16.1779 27.7488 15.1552 27.2729 14.2478L22.919 5.30658H23.6491C24.057 5.30658 24.388 4.97553 24.388 4.56763V3.33508C24.388 2.92718 24.057 2.59613 23.6491 2.59613H18.0893C17.9533 1.37245 16.1296 0.402954 13.898 0.402954C11.6664 0.402954 9.84271 1.37245 9.70672 2.59613H4.14694C3.73905 2.59613 3.408 2.92718 3.408 3.33508V4.56763C3.408 4.97553 3.73905 5.30658 4.14694 5.30658H5.08097L0.727119 14.2478C0.25124 15.1552 0 16.1809 0 17.2095C0 18.915 0.665048 20.5199 1.871 21.7259C3.07696 22.9318 4.68194 23.5969 6.38742 23.5969C8.0929 23.5969 9.69788 22.9318 10.9038 21.7259C12.1127 20.5199 12.7778 18.9179 12.7778 17.2095C12.7778 16.1779 12.5265 15.1552 12.0507 14.2478L7.69387 5.30658H20.3091L15.9523 14.2478C15.4764 15.1552 15.2252 16.1809 15.2252 17.2095ZM10.4604 15.037L10.4723 15.0636C10.824 15.7316 11.0013 16.4528 11.0013 17.2124H1.77346C1.77346 16.4528 1.95081 15.7315 2.30254 15.0636L2.30846 15.0517L6.38742 6.68101L10.4604 15.037ZM17.5277 15.0636L17.5336 15.0517L21.6126 6.68101L25.6856 15.0399L25.6974 15.0665C26.0492 15.7345 26.2265 16.4557 26.2265 17.2154H16.9986C16.9986 16.4528 17.176 15.7286 17.5277 15.0636Z" fill="#484848"/>
</svg>
