<svg width="50" height="58" viewBox="0 0 50 58" fill="none" xmlns="http://www.w3.org/2000/svg">
<g filter="url(#filter0_d)">
<path d="M21.0285 23.8696C20.4104 24.4875 20.4104 25.4895 21.0285 26.1074C21.6464 26.7254 22.6483 26.7254 23.2663 26.1074C24.2223 25.1514 25.7778 25.1514 26.7339 26.1074C27.0428 26.4165 27.4478 26.5709 27.8527 26.5709C29.2498 26.5709 29.9712 24.8693 28.9716 23.8697C26.7816 21.6796 23.2183 21.6796 21.0285 23.8696Z" fill="#8BE9E9"/>
<path d="M21.3865 24.2277L21.3865 24.2276C23.3786 22.2354 26.6213 22.2354 28.6135 24.2277L28.6135 24.2278C29.2902 24.9043 28.8043 26.0646 27.8527 26.0646C27.5766 26.0646 27.3021 25.9596 27.092 25.7494L27.0919 25.7493C25.9381 24.5956 24.062 24.5956 22.9082 25.7493L22.9082 25.7494C22.488 26.1696 21.8067 26.1696 21.3865 25.7494L21.3865 25.7493C20.9662 25.3291 20.9662 24.6478 21.3865 24.2277Z" stroke="#4A4A4A" stroke-opacity="0.48" stroke-width="1.01273"/>
<path d="M18.8331 19.4743C18.2151 20.0923 18.2151 21.0942 18.8331 21.7121C19.4511 22.3301 20.453 22.3301 21.0709 21.7121C23.2375 19.5456 26.7628 19.5456 28.9294 21.7121C29.5473 22.3301 30.5493 22.3301 31.1672 21.7121C31.7852 21.0941 31.7852 20.0923 31.1672 19.4743C27.7588 16.0659 22.2419 16.0655 18.8331 19.4743Z" fill="#8BE9E9"/>
<path d="M19.1912 19.8324L19.1912 19.8324C22.4022 16.6213 27.5985 16.6217 30.8091 19.8324L30.8092 19.8324C31.2294 20.2526 31.2294 20.9338 30.8091 21.3541C30.389 21.7743 29.7076 21.7743 29.2874 21.3541C26.9231 18.9898 23.0772 18.9898 20.7129 21.3541C20.2927 21.7743 19.6114 21.7743 19.1912 21.3541L19.1912 21.3541C18.7709 20.9339 18.7709 20.2526 19.1912 19.8324Z" stroke="#4A4A4A" stroke-opacity="0.48" stroke-width="1.01273"/>
<path d="M25.0003 31.2784C26.0404 31.2784 26.8835 30.4353 26.8835 29.3953C26.8835 28.3553 26.0404 27.5121 25.0003 27.5121C23.9603 27.5121 23.1172 28.3553 23.1172 29.3953C23.1172 30.4353 23.9603 31.2784 25.0003 31.2784Z" fill="#8BE9E9"/>
<path d="M26.3771 29.3953C26.3771 30.1557 25.7607 30.7721 25.0003 30.7721C24.24 30.7721 23.6236 30.1557 23.6236 29.3953C23.6236 28.6349 24.24 28.0185 25.0003 28.0185C25.7607 28.0185 26.3771 28.6349 26.3771 29.3953Z" stroke="#4A4A4A" stroke-opacity="0.48" stroke-width="1.01273"/>
<rect x="9.8335" y="1.5" width="30.3333" height="47" rx="3.5" stroke="#4A4A4A" stroke-width="3"/>
<rect x="23" y="5" width="4.44444" height="1.66667" rx="0.833333" fill="#4A4A4A"/>
<line x1="9" y1="10" x2="41.7778" y2="10" stroke="#4A4A4A" stroke-width="4"/>
<line x1="8.3335" y1="39.6667" x2="41.1113" y2="39.6667" stroke="#4A4A4A" stroke-width="4"/>
<circle cx="25.0001" cy="45" r="1.22222" fill="#CECFC8" stroke="#4A4A4A" stroke-width="2"/>
</g>
<defs>
<filter id="filter0_d" x="-4" y="0" width="58" height="58" filterUnits="userSpaceOnUse" color-interpolation-filters="sRGB">
<feFlood flood-opacity="0" result="BackgroundImageFix"/>
<feColorMatrix in="SourceAlpha" type="matrix" values="0 0 0 0 0 0 0 0 0 0 0 0 0 0 0 0 0 0 127 0"/>
<feOffset dy="4"/>
<feGaussianBlur stdDeviation="2"/>
<feColorMatrix type="matrix" values="0 0 0 0 0 0 0 0 0 0 0 0 0 0 0 0 0 0 0.25 0"/>
<feBlend mode="normal" in2="BackgroundImageFix" result="effect1_dropShadow"/>
<feBlend mode="normal" in="SourceGraphic" in2="effect1_dropShadow" result="shape"/>
</filter>
</defs>
</svg>
