<svg width="17" height="17" viewBox="0 0 17 17" fill="none" xmlns="http://www.w3.org/2000/svg">
<path d="M15.6579 11.1932C14.6221 11.1952 13.5927 11.0314 12.6086 10.7082C12.1485 10.5473 11.6372 10.6556 11.2817 10.9892L9.35092 12.4458C7.27732 11.4047 5.59482 9.72255 4.55335 7.64913L5.97149 5.76481C6.32954 5.40651 6.45759 4.87835 6.30345 4.39586C5.979 3.41046 5.81438 2.37951 5.81581 1.34211C5.81581 0.600886 5.21492 0 4.4737 0H1.34211C0.600886 0 0 0.600886 0 1.34211C0.00985609 9.98565 7.01435 16.9901 15.6579 17C16.3991 17 17 16.3991 17 15.6579V12.5353C17 11.7941 16.3991 11.1932 15.6579 11.1932Z" fill="#3FAAE0"/>
</svg>
