<svg width="32" height="32" viewBox="0 0 32 32" fill="none" xmlns="http://www.w3.org/2000/svg">
<circle cx="16" cy="16" r="16" fill="white"/>
<path d="M22 11.4428C21.4422 11.6875 20.8478 11.8497 20.2281 11.9284C20.8656 11.5478 21.3522 10.9497 21.5809 10.2287C20.9866 10.5831 20.3303 10.8334 19.6309 10.9731C19.0666 10.3722 18.2622 10 17.3847 10C15.6822 10 14.3116 11.3819 14.3116 13.0759C14.3116 13.3197 14.3322 13.5541 14.3828 13.7772C11.8263 13.6525 9.56406 12.4272 8.04437 10.5606C7.77906 11.0209 7.62344 11.5478 7.62344 12.115C7.62344 13.18 8.17188 14.1241 8.98937 14.6706C8.49531 14.6613 8.01063 14.5178 7.6 14.2919C7.6 14.3012 7.6 14.3134 7.6 14.3256C7.6 15.82 8.66594 17.0612 10.0637 17.3472C9.81344 17.4156 9.54063 17.4484 9.2575 17.4484C9.06063 17.4484 8.86187 17.4372 8.67531 17.3959C9.07375 18.6137 10.2044 19.5091 11.5488 19.5381C10.5025 20.3566 9.17406 20.8497 7.73594 20.8497C7.48375 20.8497 7.24187 20.8384 7 20.8075C8.36219 21.6859 9.97656 22.1875 11.7175 22.1875C17.3763 22.1875 20.47 17.5 20.47 13.4369C20.47 13.3009 20.4653 13.1697 20.4587 13.0394C21.0691 12.6063 21.5819 12.0653 22 11.4428Z" fill="#1F1E1E"/>
</svg>
