<svg width="57" height="57" viewBox="0 0 57 57" fill="none" xmlns="http://www.w3.org/2000/svg">
<g filter="url(#filter0_d)">
<path fill-rule="evenodd" clip-rule="evenodd" d="M28.5 0C14.9906 0 4 10.9906 4 24.5C4 38.0094 14.9906 49 28.5 49C42.0094 49 53 38.0094 53 24.5C53 10.9906 42.0094 0 28.5 0ZM28.5 2.87109C33.9449 2.87109 38.9257 4.89435 42.732 8.22741L40.6757 10.2837L40.4103 10.0182C39.8498 9.45757 38.9408 9.45757 38.3801 10.0182C37.8195 10.5787 37.8195 11.4876 38.3801 12.0484L38.6456 12.3138L37.1662 13.7932C35.1471 12.1557 32.658 11.0764 29.9355 10.7933V8.70908H30.3184C31.1112 8.70908 31.7539 8.06634 31.7539 7.27353C31.7539 6.48073 31.1112 5.83799 30.3184 5.83799H26.6816C25.8888 5.83799 25.2461 6.48073 25.2461 7.27353C25.2461 8.06634 25.8888 8.70908 26.6816 8.70908H27.0645V10.7933C24.3393 11.0767 21.8482 12.1578 19.828 13.7979L18.3492 12.3191L18.6199 12.0484C19.1804 11.4877 19.1804 10.5788 18.6199 10.0182C18.0593 9.45767 17.1504 9.45767 16.5897 10.0182L14.0182 12.5898C13.4577 13.1505 13.4577 14.0594 14.0182 14.62C14.2985 14.9003 14.6659 15.0405 15.0332 15.0405C15.4005 15.0405 15.768 14.9003 16.0484 14.62L16.319 14.3493L17.7978 15.8281C16.1577 17.8483 15.0766 20.3395 14.7933 23.0646H12.709V22.6816C12.709 21.8888 12.0662 21.2461 11.2734 21.2461C10.4806 21.2461 9.83789 21.8888 9.83789 22.6816V26.3185C9.83789 27.1113 10.4806 27.754 11.2734 27.754C12.0662 27.754 12.709 27.1113 12.709 26.3185V25.9356H14.7933C15.0764 28.6581 16.1557 31.1471 17.7931 33.1662L16.3137 34.6456L16.0483 34.3801C15.4877 33.8195 14.5787 33.8195 14.0181 34.3801C13.4575 34.9406 13.4575 35.8495 14.0181 36.4103L14.2836 36.6757L12.2274 38.7319C8.89426 34.9257 6.87109 29.9449 6.87109 24.5C6.87109 12.5738 16.5738 2.87109 28.5 2.87109ZM28.5 35.4102C26.0058 35.4102 23.7049 34.5683 21.8652 33.1545L37.1545 17.8652C38.5683 19.7049 39.4102 22.0058 39.4102 24.5C39.4102 30.5159 34.5159 35.4102 28.5 35.4102ZM28.5 13.5898C30.9889 13.5898 33.2853 14.4281 35.123 15.8364L19.8364 31.1229C18.4282 29.2853 17.5898 26.9889 17.5898 24.5C17.5898 18.4841 22.4842 13.5898 28.5 13.5898ZM28.5 46.1289C23.0497 46.1289 18.0646 44.1016 14.2569 40.7627L16.3136 38.706L16.5897 38.982C16.87 39.2624 17.2374 39.4025 17.6048 39.4025C17.9721 39.4025 18.3396 39.2623 18.6198 38.982C19.1804 38.4215 19.1804 37.5126 18.6198 36.9518L18.3438 36.6758L19.8221 35.1975C21.8433 36.8402 24.3366 37.9231 27.0644 38.2067V40.291H26.6815C25.8887 40.291 25.246 40.9338 25.246 41.7266C25.246 42.5194 25.8887 43.1621 26.6815 43.1621H30.3183C31.1111 43.1621 31.7538 42.5194 31.7538 41.7266C31.7538 40.9338 31.1111 40.291 30.3183 40.291H29.9354V38.2067C32.6605 37.9233 35.1518 36.8423 37.1719 35.2022L38.6508 36.6811L38.38 36.9518C37.8194 37.5125 37.8194 38.4214 38.38 38.982C38.6603 39.2623 39.0277 39.4025 39.395 39.4025C39.7623 39.4025 40.1298 39.2623 40.4101 38.982L42.9816 36.4103C43.5422 35.8497 43.5421 34.9408 42.9816 34.3802C42.4211 33.8196 41.5121 33.8197 40.9515 34.3802L40.6807 34.6509L39.2019 33.1721C40.842 31.152 41.9231 28.6608 42.2065 25.9357H44.2907V26.3186C44.2907 27.1114 44.9335 27.7541 45.7263 27.7541C46.5191 27.7541 47.1618 27.1114 47.1618 26.3186V22.6816C47.1618 21.8888 46.5191 21.2461 45.7263 21.2461C44.9335 21.2461 44.2907 21.8888 44.2907 22.6816V23.0646H42.2065C41.9229 20.3368 40.84 17.8434 39.1973 15.8222L40.6755 14.344L40.9515 14.62C41.2319 14.9004 41.5993 15.0405 41.9666 15.0405C42.3339 15.0405 42.7014 14.9003 42.9816 14.62C43.5421 14.0595 43.5422 13.1506 42.9816 12.5898L42.7056 12.3138L44.7624 10.257C48.1016 14.0646 50.1289 19.0497 50.1289 24.5C50.1289 36.4262 40.4262 46.1289 28.5 46.1289Z" fill="#4A4A4A"/>
<path fill-rule="evenodd" clip-rule="evenodd" d="M28.5001 19.2045C29.282 19.2045 29.9198 18.5667 29.9198 17.7848C29.9198 17.0029 29.282 16.3652 28.5001 16.3652C27.7182 16.3652 27.0806 17.0029 27.0806 17.7848C27.0806 18.5668 27.7182 19.2045 28.5001 19.2045Z" fill="#3D352C"/>
<path fill-rule="evenodd" clip-rule="evenodd" d="M28.5001 29.8115C27.7182 29.8115 27.0806 30.4492 27.0806 31.2311C27.0806 32.013 27.7182 32.6507 28.5001 32.6507C29.282 32.6507 29.9198 32.013 29.9198 31.2311C29.9198 30.4492 29.282 29.8115 28.5001 29.8115Z" fill="#3D352C"/>
<path d="M35.4668 25.9193C36.2383 25.7797 36.7506 25.0412 36.611 24.2697C36.4715 23.4983 35.7329 22.986 34.9614 23.1256C34.1899 23.2651 33.6776 24.0037 33.8171 24.7751C33.9567 25.5466 34.6953 26.0588 35.4668 25.9193Z" fill="#3FAAE0"/>
<path d="M36.119 24.3587C36.2094 24.8584 35.8776 25.3368 35.3778 25.4273C34.8779 25.5177 34.3995 25.1858 34.3091 24.6861C34.2187 24.1864 34.5506 23.708 35.0504 23.6176C35.5502 23.5272 36.0286 23.859 36.119 24.3587Z" stroke="#3D352C" stroke-opacity="0.48"/>
<path d="M33.2536 30.6816C34.0377 30.6816 34.6733 30.046 34.6733 29.262C34.6733 28.4779 34.0377 27.8423 33.2536 27.8423C32.4696 27.8423 31.834 28.4779 31.834 29.262C31.834 30.046 32.4696 30.6816 33.2536 30.6816Z" fill="#3FAAE0"/>
<path d="M34.1733 29.262C34.1733 29.7699 33.7616 30.1816 33.2536 30.1816C32.7457 30.1816 32.334 29.7699 32.334 29.262C32.334 28.7541 32.7457 28.3423 33.2536 28.3423C33.7616 28.3423 34.1733 28.7541 34.1733 29.262Z" stroke="#3D352C" stroke-opacity="0.48"/>
<path d="M22.776 25.5109C23.3303 24.9566 23.3303 24.0579 22.776 23.5036C22.2217 22.9493 21.3231 22.9493 20.7688 23.5036C20.2145 24.0579 20.2145 24.9566 20.7688 25.5109C21.3231 26.0652 22.2217 26.0652 22.776 25.5109Z" fill="#3D352C"/>
<path d="M23.7463 21.1737C24.5304 21.1737 25.166 20.5381 25.166 19.7541C25.166 18.97 24.5304 18.3344 23.7463 18.3344C22.9623 18.3344 22.3267 18.97 22.3267 19.7541C22.3267 20.5381 22.9623 21.1737 23.7463 21.1737Z" fill="#3FAAE0"/>
<path d="M24.666 19.7541C24.666 20.262 24.2542 20.6737 23.7463 20.6737C23.2384 20.6737 22.8267 20.262 22.8267 19.7541C22.8267 19.2462 23.2384 18.8344 23.7463 18.8344C24.2542 18.8344 24.666 19.2462 24.666 19.7541Z" stroke="#3D352C" stroke-opacity="0.48"/>
</g>
<defs>
<filter id="filter0_d" x="0" y="0" width="57" height="57" filterUnits="userSpaceOnUse" color-interpolation-filters="sRGB">
<feFlood flood-opacity="0" result="BackgroundImageFix"/>
<feColorMatrix in="SourceAlpha" type="matrix" values="0 0 0 0 0 0 0 0 0 0 0 0 0 0 0 0 0 0 127 0"/>
<feOffset dy="4"/>
<feGaussianBlur stdDeviation="2"/>
<feColorMatrix type="matrix" values="0 0 0 0 0 0 0 0 0 0 0 0 0 0 0 0 0 0 0.1 0"/>
<feBlend mode="normal" in2="BackgroundImageFix" result="effect1_dropShadow"/>
<feBlend mode="normal" in="SourceGraphic" in2="effect1_dropShadow" result="shape"/>
</filter>
</defs>
</svg>
