<svg width="32" height="32" viewBox="0 0 32 32" fill="none" xmlns="http://www.w3.org/2000/svg">
<circle cx="16" cy="16" r="16" fill="white"/>
<path d="M23.235 11.2527C22.7467 10.3404 22.2169 10.1725 21.138 10.1087C20.0603 10.0319 17.3501 10 15.0022 10C12.6499 10 9.93863 10.0319 8.862 10.1075C7.78537 10.1725 7.25437 10.3392 6.76162 11.2527C6.25875 12.1639 6 13.7334 6 16.4965C6 16.4988 6 16.5 6 16.5C6 16.5024 6 16.5035 6 16.5035V16.5059C6 19.2572 6.25875 20.8385 6.76162 21.7402C7.25437 22.6525 7.78425 22.818 8.86088 22.8948C9.93863 22.961 12.6499 23 15.0022 23C17.3501 23 20.0602 22.961 21.1391 22.896C22.218 22.8192 22.7479 22.6537 23.2361 21.7414C23.7435 20.8396 24 19.2584 24 16.5071C24 16.5071 24 16.5035 24 16.5012V16.4976C24 13.7334 23.7435 12.1639 23.235 11.2527ZM12.75 20.0455V12.9545L18.375 16.5L12.75 20.0455Z" fill="#1F1E1E"/>
</svg>
